<svg xmlns="http://www.w3.org/2000/svg" version="1.1" xmlns:xlink="http://www.w3.org/1999/xlink" xmlns:svgjs="http://svgjs.dev/svgjs" width="1000" height="1000" viewBox="0 0 1000 1000"><rect width="1000" height="1000" fill="#ffffff"></rect><g transform="matrix(0.7,0,0,0.7,149.57576849176098,422.3381116645364)"><svg viewBox="0 0 396 88" data-background-color="#ffffff" preserveAspectRatio="xMidYMid meet" height="222" width="1000" xmlns="http://www.w3.org/2000/svg" xmlns:xlink="http://www.w3.org/1999/xlink"><g id="tight-bounds" transform="matrix(1,0,0,1,0.2399938246609281,-0.021581894975554405)"><svg viewBox="0 0 395.52 88.0431637899511" height="88.0431637899511" width="395.52"><g><svg viewBox="0 0 522.2600367760687 116.25562792986776" height="88.0431637899511" width="395.52"><g transform="matrix(1,0,0,1,126.74003677606865,35.92467646877884)"><svg viewBox="0 0 395.52 44.40627499231007" height="44.40627499231007" width="395.52"><g id="textblocktransform"><svg viewBox="0 0 395.52 44.40627499231007" height="44.40627499231007" width="395.52" id="textblock"><g><svg viewBox="0 0 395.52 44.40627499231007" height="44.40627499231007" width="395.52"><g transform="matrix(1,0,0,1,0,0)"><svg width="395.52" viewBox="1.850000023841858 -35.45000076293945 325.0799865722656 36.5" height="44.40627499231007" data-palette-color="#6936f5"><path d="M13.85-0.05L13.85-32.2 1.85-32.2 1.85-34.25 28.05-34.25 28.05-32.2 16.1-32.2 16.1-0.05 13.85-0.05ZM35.1-0.05L35.1-34.25 37.2-34.25 37.2-18.9 57-18.9 57-34.25 59.1-34.25 59.1-0.05 57-0.05 57-16.9 37.2-16.9 37.2-0.05 35.1-0.05ZM69.5-0.05L69.5-34.25 91.09-34.25 91.09-32.25 71.59-32.25 71.59-19.2 85.95-19.2 85.95-17.2 71.59-17.2 71.59-2.05 92.09-2.05 92.09-0.05 69.5-0.05ZM136.39-1.65L137.24 0Q136.59 0.4 135.54 0.4L135.54 0.4Q133.49 0.4 132.19-1.35L132.19-1.35 126.14-9.7Q124.49-11.95 122.97-12.93 121.44-13.9 119.34-14.15L119.34-14.15 119.34-16 123.24-16Q126.79-16 128.99-18.23 131.19-20.45 131.19-24.1L131.19-24.1Q131.19-27.65 129.09-29.93 126.99-32.2 123.79-32.2L123.79-32.2 115.09-32.2 115.09 0 112.99 0 112.99-34.2 123.99-34.2Q126.64-34.2 128.77-32.9 130.89-31.6 132.09-29.33 133.29-27.05 133.29-24.15L133.29-24.15Q133.29-20.1 131.14-17.57 128.99-15.05 125.39-14.8L125.39-14.8Q123.69-14.7 122.74-14.7L122.74-14.7Q124.04-14.5 124.69-14.15 125.34-13.8 126.04-12.9L126.04-12.9Q127.64-10.8 130.04-7.58 132.44-4.35 133.84-2.4L133.84-2.4Q134.49-1.5 135.49-1.5L135.49-1.5Q136.09-1.5 136.39-1.65L136.39-1.65ZM156.79 0.7Q151.94 0.7 148.01-1.55 144.09-3.8 141.84-7.73 139.59-11.65 139.59-16.55L139.59-16.55 139.59-17.5Q139.59-22.45 141.81-26.48 144.04-30.5 147.91-32.8 151.79-35.1 156.59-35.1L156.59-35.1Q161.39-35.1 165.29-32.8 169.19-30.5 171.44-26.48 173.69-22.45 173.69-17.5L173.69-17.5 173.69-16.55Q173.69-11.6 171.51-7.68 169.34-3.75 165.49-1.53 161.64 0.7 156.79 0.7L156.79 0.7ZM156.64-1.2Q160.84-1.2 164.26-3.2 167.69-5.2 169.64-8.72 171.59-12.25 171.59-16.55L171.59-16.55 171.59-17.5Q171.59-21.85 169.59-25.43 167.59-29 164.14-31.05 160.69-33.1 156.54-33.1L156.54-33.1Q152.39-33.1 148.99-31.05 145.59-29 143.64-25.43 141.69-21.85 141.69-17.5L141.69-17.5 141.69-16.55Q141.69-12.25 143.64-8.72 145.59-5.2 149.01-3.2 152.44-1.2 156.64-1.2L156.64-1.2ZM196.79 1Q191.94 1 188.09-1.4 184.24-3.8 182.06-7.88 179.89-11.95 179.89-16.85L179.89-16.85Q179.89-21.85 182.16-26.13 184.44-30.4 188.36-32.93 192.28-35.45 196.99-35.45L196.99-35.45Q201.19-35.45 204.64-33.73 208.09-32 208.49-27.6L208.49-27.6 206.44-27.6Q206.04-30.95 203.01-32.2 199.99-33.45 196.74-33.45L196.74-33.45Q192.74-33.45 189.34-31.1 185.94-28.75 183.96-24.88 181.99-21 181.99-16.7L181.99-16.7Q181.99-12.55 183.89-8.93 185.78-5.3 189.19-3.15 192.59-1 196.84-1L196.84-1Q200.49-1 203.71-2.65 206.94-4.3 208.94-7.1L208.94-7.1 210.64-5.95Q208.19-2.5 204.54-0.75 200.89 1 196.79 1L196.79 1ZM217.83-34.25L220.08-34.25 220.08-18.15 222.78-18.25Q224.88-18.35 226.16-18.93 227.43-19.5 228.73-21.05L228.73-21.05Q230.58-23.35 232.28-26.5L232.28-26.5Q233.63-29 236.13-34.25L236.13-34.25 238.83-34.25 236.98-30.7Q234.58-26.05 234.03-25.05L234.03-25.05Q232.73-22.75 231.38-20.75L231.38-20.75Q230.93-20.1 229.98-19.1 229.03-18.1 228.28-17.55L228.28-17.55 238.68-2.65Q239.33-1.75 240.28-1.75L240.28-1.75Q240.88-1.75 241.18-1.9L241.18-1.9 242.28-0.15Q241.78 0.1 241.38 0.2 240.98 0.3 240.33 0.3L240.33 0.3Q238.38 0.3 237.03-1.5L237.03-1.5 226.23-16.75Q224.73-16.3 223.46-16.2 222.18-16.1 221.31-16.1 220.43-16.1 220.18-16.1L220.18-16.1 220.18-0.1 217.83-0.1 217.83-34.25ZM248.88-0.05L248.88-34.25 270.48-34.25 270.48-32.25 250.98-32.25 250.98-19.2 265.33-19.2 265.33-17.2 250.98-17.2 250.98-2.05 271.48-2.05 271.48-0.05 248.88-0.05ZM287.53-0.05L287.53-32.2 275.53-32.2 275.53-34.25 301.73-34.25 301.73-32.2 289.78-32.2 289.78-0.05 287.53-0.05ZM315.88 1.05Q313.47 1.05 310.97 0.05 308.47-0.95 306.6-2.75 304.72-4.55 304.02-6.85L304.02-6.85 305.97-7.6Q307.07-4.55 309.93-2.75 312.77-0.95 315.88-0.95L315.88-0.95Q318.32-0.95 320.35-2.02 322.38-3.1 323.55-5 324.72-6.9 324.72-9.25L324.72-9.25Q324.72-11.65 323.07-13.33 321.43-15 317.68-17.2L317.68-17.2 315.07-18.65Q312.32-20.1 310.8-21.13 309.27-22.15 308.32-23.58 307.38-25 307.38-27.05L307.38-27.05Q307.38-29.4 308.57-31.23 309.77-33.05 311.85-34.02 313.93-35 316.43-35L316.43-35Q319.57-35 321.72-33.5 323.88-32 323.93-29.55L323.93-29.55 321.72-29.65Q321.57-31.3 319.9-32.15 318.22-33 316.27-33L316.27-33Q314.47-33 312.93-32.23 311.38-31.45 310.43-30.1 309.47-28.75 309.47-27.2L309.47-27.2Q309.47-24.8 311.3-23.28 313.13-21.75 316.32-20.15L316.32-20.15Q317.63-19.55 318.32-19.1L318.32-19.1Q322.82-16.4 324.88-14.23 326.93-12.05 326.93-9.2L326.93-9.2Q326.93-6.2 325.4-3.85 323.88-1.5 321.35-0.23 318.82 1.05 315.88 1.05L315.88 1.05Z" opacity="1" transform="matrix(1,0,0,1,0,0)" fill="#000000" class="wordmark-text-0" data-fill-palette-color="primary" id="text-0"></path></svg></g></svg></g></svg></g></svg></g><g><svg viewBox="0 0 116.25678100098406 116.25562792986776" height="116.25562792986776" width="116.25678100098406"><g><svg version="1.0" xmlns="http://www.w3.org/2000/svg" xmlns:xlink="http://www.w3.org/1999/xlink" x="0" y="0" viewBox="0 0 99.99899291992188 99.99800109863281" enable-background="new 0 0 100 99.998" xml:space="preserve" width="116.25678100098406" height="116.25562792986776" class="icon-icon-0" data-fill-palette-color="accent" id="icon-0"><path d="M42.177 68.126c0 0 52.892-29.633 57.822-68.126C61.505 4.931 31.875 57.823 31.875 57.823l-11.475 1.505L0 79.728l21.227-6.94L10.754 89.244l16.457-10.473-6.939 21.227 20.399-20.397L42.177 68.126z" fill="#000000" data-fill-palette-color="accent"></path></svg></g></svg></g></svg></g><defs></defs></svg><rect width="395.52" height="88.0431637899511" fill="none" stroke="none" visibility="hidden"></rect></g></svg></g></svg>